<svg width="200" height="200" viewBox="0 0 200 200" fill="none" xmlns="http://www.w3.org/2000/svg">
<path d="M141.6 123.0C141.2 118.3 140.4 113.6 139.3 108.8C139.3 108.5 139.2 108.3 139.2 108.0C138.6 105.6 137.9 103.2 137.2 100.8C134.9 93.4 132.0 86.3 128.6 79.5C127.4 77.2 126.2 74.9 125.0 72.7H124.9C124.8 72.4 124.7 72.2 124.5 72.0C119.9 64.0 114.6 56.5 108.5 49.6C107.6 48.6 106.7 47.6 105.8 46.6C105.0 45.8 104.3 45.1 103.6 44.3C99.9 40.6 96.2 37.3 92.3 34.3C89.2 32.0 86.0 29.8 82.7 27.9C80.8 26.9 79.0 25.9 77.2 25.0C71.4 22.3 66.0 20.7 60.8 20.1C60.4 20.0 60.0 20.0 59.6 20.0C53.5 19.5 48.1 20.3 43.3 22.4L40.9 23.6C35.5 26.7 31.3 31.4 28.2 37.9C25.1 44.3 23.6 52.3 23.6 61.7C23.6 71.0 25.1 80.8 28.2 90.8C31.3 100.9 35.5 110.5 40.9 119.7C46.2 128.8 52.4 137.3 59.6 145.0C66.8 152.7 74.5 158.9 82.7 163.7C84.7 164.8 86.6 165.8 88.6 166.6C90.6 167.5 92.6 168.4 94.5 169.3V155.4C92.6 154.5 90.6 153.6 88.6 152.7C86.6 151.9 84.7 150.9 82.7 149.7C80.1 144.2 77.9 138.6 76.0 133.1C74.2 127.5 72.6 122.0 71.5 116.5L88.4 126.3L88.6 126.4V112.8L71.9 103.2L68.8 101.4C68.6 99.7 68.4 98.0 68.3 96.4C68.2 95.7 68.2 94.9 68.1 94.2C68.0 91.8 67.9 89.5 67.9 87.3C67.9 85.0 68.0 82.8 68.1 80.6C68.3 78.4 68.5 76.3 68.8 74.2L94.0 88.8L96.6 90.3C96.9 92.7 97.1 95.1 97.3 97.4C97.4 99.8 97.5 102.1 97.5 104.3C97.5 105.7 97.5 107.1 97.4 108.4C97.4 109.3 97.3 110.1 97.3 111.0C97.1 112.8 97.0 114.6 96.7 116.3C96.7 116.7 96.6 117.1 96.6 117.4L97.2 117.7L101.2 120.1L108.4 124.2C108.6 123.1 108.7 122.1 108.8 121.0C108.9 120.0 109.0 118.9 109.1 117.8C109.1 117.2 109.2 116.7 109.2 116.1C109.3 114.5 109.3 112.8 109.3 111.2C109.3 108.9 109.2 106.6 109.1 104.3C109.1 103.7 109.0 103.2 109.0 102.6C108.8 100.8 108.7 98.9 108.4 97.1L113.8 100.2L120.1 103.8L128.5 108.7C128.9 110.4 129.1 112.1 129.4 113.7C129.5 114.6 129.6 115.3 129.6 116.1C129.9 118.5 130.0 120.8 130.0 123.1C130.0 123.7 130.0 124.2 130.0 124.8C129.9 126.5 129.8 128.1 129.6 129.7C129.4 131.8 129.0 133.9 128.5 135.8L137.9 141.2L140.7 142.8C141.1 140.8 141.3 138.7 141.5 136.6C141.7 134.4 141.8 132.2 141.8 129.9C141.8 127.7 141.7 125.3 141.6 123.0ZM36.9 82.9C36.4 80.4 36.0 77.9 35.8 75.5C35.5 73.1 35.4 70.7 35.4 68.5C35.4 66.2 35.5 64.0 35.8 61.9C36.0 59.8 36.4 57.7 36.9 55.8L57.0 67.4C56.7 69.3 56.5 71.2 56.4 73.2L56.3 73.8C56.2 76.0 56.1 78.2 56.1 80.4C56.1 82.7 56.2 85.0 56.3 87.4C56.5 89.7 56.7 92.1 57.0 94.5L36.9 82.9ZM52.7 120.5C48.4 113.8 44.8 106.8 41.9 99.4L59.3 109.4C60.2 114.2 61.3 118.9 62.7 123.7C64.0 128.5 65.6 133.3 67.3 138.2C61.9 133.0 57.0 127.1 52.7 120.5ZM62.7 44.8C61.3 48.0 60.2 51.5 59.3 55.2L55.4 52.9L41.9 45.1C44.8 41.0 48.4 38.1 52.7 36.5C53.7 36.1 54.7 35.8 55.8 35.6C57.8 35.1 59.8 35.0 62.0 35.1C63.7 35.1 65.5 35.3 67.3 35.7C65.6 38.5 64.0 41.5 62.7 44.8ZM87.8 71.6L71.5 62.2C72.6 58.0 74.2 54.2 76.0 50.8C77.0 49.2 77.9 47.6 79.0 46.2C80.2 44.6 81.4 43.2 82.7 41.9C84.0 44.7 85.2 47.6 86.4 50.4C86.8 51.6 87.3 52.8 87.8 54.0C87.9 54.3 88.0 54.6 88.1 54.9C88.5 56.1 88.9 57.3 89.4 58.5C91.2 64.0 92.8 69.6 93.9 75.1L87.8 71.6ZM106.1 82.1C105.2 77.4 104.1 72.7 102.7 67.9C101.9 65.1 101.1 62.3 100.2 59.5C99.5 57.5 98.8 55.5 98.1 53.4C100.7 56.0 103.2 58.6 105.6 61.5C108.1 64.5 110.5 67.7 112.7 71.1C114.0 73.1 115.2 75.0 116.3 77.0C119.1 81.9 121.5 87.0 123.5 92.2L106.1 82.1Z" fill="#4E87D0" fill-opacity="0.75" stroke="#8CBEFF" stroke-linecap="round" stroke-linejoin="round"/>
<path d="M67.3 138.2C61.9 133.0 57.0 127.1 52.7 120.5C48.4 113.8 44.8 106.8 41.9 99.4L59.3 109.5C60.2 114.2 61.3 118.9 62.7 123.7C64.0 128.5 65.6 133.3 67.3 138.2Z" fill="#3E7AC9" fill-opacity="0.75" stroke="#8CBEFF" stroke-linecap="round" stroke-linejoin="round"/>
<path d="M93.9 75.2L87.8 71.6L71.5 62.2L87.8 54.0C87.9 54.3 88.0 54.6 88.1 54.9C88.5 56.1 88.9 57.3 89.4 58.5C91.2 64.0 92.8 69.6 93.9 75.2Z" fill="#3E7AC9" fill-opacity="0.75" stroke="#8CBEFF" stroke-linecap="round" stroke-linejoin="round"/>
<path d="M87.8 54.0L71.5 62.2C72.6 58.0 74.2 54.2 76.0 50.8C77.0 49.2 77.9 47.6 79.0 46.2C80.2 44.6 81.4 43.2 82.7 41.9C84.0 44.7 85.2 47.6 86.4 50.4C86.8 51.6 87.3 52.8 87.8 54.0Z" fill="#2D6CBD" fill-opacity="0.75" stroke="#8CBEFF" stroke-linecap="round" stroke-linejoin="round"/>
<path d="M123.5 92.2L106.1 82.1L116.3 77.0C119.1 81.9 121.5 87.0 123.5 92.2Z" fill="#3E7AC9" fill-opacity="0.75" stroke="#8CBEFF" stroke-linecap="round" stroke-linejoin="round"/>
<path d="M116.3 77.0L106.1 82.1C105.2 77.5 104.1 72.7 102.7 67.9C101.9 65.1 101.1 62.3 100.2 59.5C99.5 57.5 98.8 55.5 98.1 53.5C100.7 56.0 103.2 58.6 105.6 61.5C108.1 64.5 110.5 67.7 112.7 71.1C114.0 73.1 115.2 75.0 116.3 77.0Z" fill="#2D6CBD" fill-opacity="0.75" stroke="#8CBEFF" stroke-linecap="round" stroke-linejoin="round"/>
<path d="M113.7 132.9L106.4 136.6V137.9L102.5 139.9L82.7 149.7C80.1 144.2 77.9 138.6 76.0 133.1C74.2 127.5 72.6 122.0 71.5 116.5L88.4 126.3L88.6 126.4L98.0 121.7L98.5 121.4L101.2 120.1L108.4 124.2L109.8 123.5C111.0 126.7 112.3 129.8 113.7 132.9Z" fill="#2D6CBD" fill-opacity="0.75" stroke="#8CBEFF" stroke-linecap="round" stroke-linejoin="round"/>
<path d="M129.4 113.7L109.8 123.5L108.4 124.2C108.6 123.2 108.7 122.1 108.8 121.0C108.9 120.0 109.0 118.9 109.1 117.8C109.1 117.2 109.2 116.7 109.2 116.1C109.3 114.5 109.3 112.8 109.3 111.2C109.3 108.9 109.2 106.6 109.1 104.3C109.1 103.7 109.0 103.2 109.0 102.6C108.8 100.8 108.7 98.9 108.4 97.1L113.8 100.2L120.1 103.8L128.5 108.7C128.9 110.4 129.1 112.1 129.4 113.7Z" fill="#2D6CBD" fill-opacity="0.75" stroke="#8CBEFF" stroke-linecap="round" stroke-linejoin="round"/>
<path d="M101.2 120.1L98.5 121.4L98.0 121.7L88.6 126.4V112.8L89.6 112.3L94.7 109.7L97.4 108.4C97.4 109.3 97.3 110.1 97.3 111.0C97.1 112.8 97.0 114.6 96.7 116.3C96.7 116.7 96.6 117.1 96.6 117.4L97.2 117.7L101.2 120.1Z" fill="#2D6CBD" fill-opacity="0.75" stroke="#8CBEFF" stroke-linecap="round" stroke-linejoin="round"/>
<path d="M97.5 104.3C97.5 105.7 97.5 107.1 97.4 108.4L94.7 109.7L89.6 112.3L88.6 112.8L72.0 103.2L68.8 101.4L70.5 100.5L79.1 96.2L87.7 91.9L94.0 88.8L96.6 90.3C96.9 92.7 97.1 95.1 97.3 97.4C97.4 99.8 97.5 102.1 97.5 104.3Z" fill="#3E7AC9" fill-opacity="0.75" stroke="#8CBEFF" stroke-linecap="round" stroke-linejoin="round"/>
<path d="M94.0 88.8L87.7 91.9L79.1 96.2L70.5 100.5L68.8 101.4C68.6 99.7 68.4 98.0 68.3 96.4C68.2 95.7 68.2 94.9 68.1 94.2C68.0 91.8 67.9 89.5 67.9 87.3C67.9 85.0 68.0 82.8 68.1 80.6C68.3 78.4 68.5 76.3 68.8 74.2L94.0 88.8Z" fill="#2D6CBD" fill-opacity="0.75" stroke="#8CBEFF" stroke-linecap="round" stroke-linejoin="round"/>
<path d="M62.0 35.1L55.4 38.3L41.9 45.1C44.8 41.0 48.4 38.1 52.7 36.5C53.7 36.1 54.7 35.8 55.8 35.6C57.8 35.1 59.8 35.0 62.0 35.1Z" fill="#2D6CBD" fill-opacity="0.75" stroke="#8CBEFF" stroke-linecap="round" stroke-linejoin="round"/>
<path d="M67.3 35.7C65.6 38.5 64.0 41.5 62.7 44.8C61.3 48.0 60.2 51.5 59.3 55.2L55.4 52.9L41.9 45.1L55.4 38.3L62.0 35.1C63.7 35.1 65.5 35.3 67.3 35.7Z" fill="#3E7AC9" fill-opacity="0.75" stroke="#8CBEFF" stroke-linecap="round" stroke-linejoin="round"/>
<path d="M57.0 94.5L36.9 82.9L56.4 73.2L56.3 73.8C56.2 76.0 56.1 78.2 56.1 80.4C56.1 82.7 56.2 85.0 56.3 87.4C56.5 89.7 56.7 92.1 57.0 94.5Z" fill="#3E7AC9" fill-opacity="0.75" stroke="#8CBEFF" stroke-linecap="round" stroke-linejoin="round"/>
<path d="M57.0 67.4C56.7 69.3 56.5 71.2 56.4 73.2L36.9 82.9C36.4 80.4 36.0 77.9 35.8 75.5C35.5 73.1 35.4 70.7 35.4 68.5C35.4 66.2 35.5 64.0 35.8 61.9C36.0 59.8 36.4 57.7 36.9 55.8L57.0 67.4Z" fill="#2D6CBD" fill-opacity="0.75" stroke="#8CBEFF" stroke-linecap="round" stroke-linejoin="round"/>
<path d="M106.4 137.9V149.5L94.5 155.4C92.6 154.5 90.6 153.6 88.6 152.7C86.6 151.9 84.7 150.9 82.7 149.7L102.5 139.9L106.4 137.9Z" fill="#3E7AC9" fill-opacity="0.75" stroke="#8CBEFF" stroke-linecap="round" stroke-linejoin="round"/>
<path d="M175.4 176.1L167.1 181.0L135.6 196.8L143.9 191.9L166.8 180.4L175.4 176.1Z" stroke="#8CBEFF" stroke-linecap="round" stroke-linejoin="round"/>
<path d="M171.3 140.1V153.7L164.4 157.1L155.8 161.4L149.7 164.5L148.3 165.2L139.8 169.5V155.9L149.7 150.9L158.3 146.6L158.7 146.4L171.3 140.1Z" fill="#2D6CBD" fill-opacity="0.75" stroke="#8CBEFF" stroke-linecap="round" stroke-linejoin="round"/>
<path d="M143.9 191.9L135.6 196.8L125.0 178.4L118.2 166.7V181.8L106.4 174.9V136.6L107.6 137.3L118.3 143.5L126.0 148.0L137.9 154.8L139.8 155.9V169.5L126.5 161.8L133.6 174.1L143.9 191.9Z" fill="#4E87D0" fill-opacity="0.75" stroke="#8CBEFF" stroke-linecap="round" stroke-linejoin="round"/>
<path d="M175.4 176.1L166.8 180.4L143.9 191.9L133.6 174.1L126.5 161.8L139.8 169.5L148.3 165.2L149.7 164.5L155.8 161.4L164.4 157.1L175.4 176.1Z" fill="#3E7AC9" fill-opacity="0.75" stroke="#8CBEFF" stroke-linecap="round" stroke-linejoin="round"/>
<path d="M125.0 178.4L118.2 181.8V166.7L125.0 178.4Z" fill="#2D6CBD" fill-opacity="0.75" stroke="#8CBEFF" stroke-linecap="round" stroke-linejoin="round"/>
<path d="M106.4 149.5V163.4L94.5 169.3V155.4L106.4 149.5Z" fill="#2D6CBD" fill-opacity="0.75" stroke="#8CBEFF" stroke-linecap="round" stroke-linejoin="round"/>
<path d="M171.3 140.1L158.7 146.4L158.3 146.6L149.7 150.9L139.8 155.9L137.9 154.8L126.0 148.0L118.3 143.5L107.6 137.3L106.4 136.6L113.7 132.9L130.0 124.8C130.0 126.5 129.8 128.1 129.6 129.7C129.4 131.8 129.0 133.9 128.5 135.8L137.9 141.2L140.7 142.8L159.6 133.4L171.3 140.1Z" fill="#3E7AC9" fill-opacity="0.75" stroke="#8CBEFF" stroke-linecap="round" stroke-linejoin="round"/>
<path d="M173.3 114.2C173.3 116.5 173.2 118.7 173.0 120.8C172.8 123.0 172.5 125.0 172.2 127.1L140.7 142.8C141.1 140.8 141.3 138.7 141.5 136.6C141.7 134.4 141.8 132.2 141.8 129.9C141.8 127.7 141.7 125.3 141.6 123.0C141.2 118.3 140.4 113.6 139.3 108.8C139.3 108.5 139.2 108.3 139.2 108.0C138.6 105.6 137.9 103.2 137.2 100.8C134.9 93.4 132.0 86.3 128.6 79.5C127.4 77.2 126.2 74.9 125.0 72.7H124.9C124.8 72.4 124.7 72.2 124.5 72.0C119.9 64.0 114.6 56.5 108.5 49.6C107.6 48.6 106.7 47.6 105.8 46.6C105.0 45.8 104.3 45.1 103.6 44.3C99.9 40.6 96.2 37.3 92.3 34.3C89.2 32.0 86.0 29.8 82.7 27.9C80.8 26.9 79.0 25.9 77.2 25.0C71.4 22.3 66.0 20.7 60.8 20.1C60.4 20.0 60.0 20.0 59.6 20.0C53.5 19.5 48.1 20.3 43.3 22.4L72.4 7.9C77.7 4.9 83.9 3.6 91.1 4.2C98.3 4.8 106.0 7.5 114.2 12.2C122.4 16.9 130.1 23.1 137.3 30.9C144.5 38.6 150.7 47.0 156.0 56.2C161.4 65.4 165.6 75.0 168.7 85.0C171.8 95.1 173.3 104.8 173.3 114.2Z" fill="#3E7AC9" fill-opacity="0.75" stroke="#8CBEFF" stroke-linecap="round" stroke-linejoin="round"/>
</svg>
